<svg width="3000" height="3000" viewBox="0 0 3000 3000" fill="none" xmlns="http://www.w3.org/2000/svg">
<rect width="3000" height="3000" rx="300" fill="black" style="fill:black;fill-opacity:1;"/>
<path d="M2530.18 280.293C2545.09 280.293 2557.21 292.384 2557 307.299C2553.03 587.376 2476.52 927.038 1636.44 934.279C1621.52 934.407 1608.91 946.533 1608.86 961.448C1608.44 1096.37 1603 1159.75 1539.79 1189.53L1661.96 1424.35C1753.36 1424.37 1870.37 1444.32 1942.65 1518.78C1964.51 1507.85 2024.06 1485.98 2087.33 1485.98C2166.42 1485.98 2270.59 1586.77 2270.6 1754.37V2290.42C2278.31 2319.04 2305.32 2383.79 2351.62 2413.88L2313.04 2457.29C2225.26 2441.21 2049.71 2363.92 2049.71 2183.36V1706.87C2048.86 1685.77 2037.69 1640.36 2001.28 1610.43C2019.86 1631.03 2037.48 1682.32 2018.85 1786.92C1994.93 1921.19 1833.33 1983.05 1755.52 1997.2L1690.9 2133.2L1814.36 2256.66V2314.54L1493.17 2635.73L1535.61 2678.17L1493.17 2720.61H1289.64V2662.74L1648.46 2303.93L1454.58 2110.05L1397.67 2166.96L1441.08 2210.36V2303.93L1128.08 2616.92L1157.5 2646.34L1115.06 2688.78H923.114V2646.34L1300.25 2269.2L1169.08 2138.02C1153.64 2125.16 1122.78 2085.16 1122.78 2028.06C1122.78 1970.96 1145.44 1927.75 1156.77 1913.28L1315.69 1754.37L1034.04 1619.09H935.654L875.706 1472.48H817.134L722.487 1696.26L755.282 1727.12H846.915L755.282 1875.66L613.493 1727.12L732.679 1402.07L666.543 1252.56L559.478 1533.25H651.11L559.478 1663.46L440.838 1533.25L595.166 1104.02H764.928L833.411 1252.56C856.56 1200.8 902.859 1075.28 902.859 987.31C902.859 899.343 834.697 797.615 800.616 757.747L739.981 886.997L783.254 932.331L675.224 1040.36L583.592 948.728V450.054C595.099 448.515 608.395 447.175 623.138 446.183V347.812C647.574 342.346 710.141 331.414 764.928 331.414C833.411 331.414 1092.88 350.705 1237.56 554.226C1329.4 683.414 1380.35 782.28 1402.94 836.079C1405.53 766.512 1405.64 681.91 1405.19 579.348C1404.47 414.21 1537.92 280.293 1703.06 280.293H2530.18Z" fill="white" style="fill:white;fill-opacity:1;"/>
<path d="M722.489 678.652C722.489 701.558 703.919 720.127 681.013 720.127C658.106 720.127 639.537 701.558 639.537 678.652C639.537 655.745 658.106 637.176 681.013 637.176C703.919 637.176 722.489 655.745 722.489 678.652Z" fill="white" style="fill:white;fill-opacity:1;"/>
<path d="M646.32 901.326C649.791 897.87 655.066 896.973 659.426 899.204C660.93 899.974 662.429 900.755 663.923 901.544C670.389 904.96 679.052 909.788 685.435 914.43C690.786 918.322 698.769 924.78 701.192 934.625C704.209 946.886 697.278 956.05 692.324 961.004C684.251 969.077 673.321 971.31 663.505 968.144C654.409 965.21 647.56 958.168 643.925 949.99C642.156 946.01 638.453 938.361 635.045 931.423C634.087 929.473 631.792 926.29 630.275 923.335C628.89 920.639 630.016 917.663 632.149 915.51C636.615 911.003 642.196 905.432 646.32 901.326Z" fill="black" style="fill:black;fill-opacity:1;"/>
<path fill-rule="evenodd" clip-rule="evenodd" d="M681.013 617.885C714.574 617.885 741.78 645.091 741.78 678.651C741.78 712.212 714.574 739.418 681.013 739.418C647.453 739.418 620.247 712.212 620.247 678.651C620.247 645.091 647.453 617.885 681.013 617.885ZM681.013 656.467C668.761 656.467 658.829 666.399 658.829 678.651C658.829 690.904 668.761 700.836 681.013 700.836C693.266 700.836 703.198 690.904 703.198 678.651C703.198 666.399 693.266 656.467 681.013 656.467Z" fill="black" style="fill:black;fill-opacity:1;"/>
<path fill-rule="evenodd" clip-rule="evenodd" d="M2530.18 261C2555.66 261 2576.66 281.706 2576.29 307.57C2574.29 448.806 2554.1 610.526 2423.69 736.95C2293.75 862.922 2058.47 949.932 1636.61 953.568C1631.75 953.61 1628.17 957.66 1628.15 961.507C1627.95 1024.7 1626.71 1074.56 1618.22 1112.75C1610.71 1146.5 1597.17 1172.78 1572.92 1191.79C1568.23 1195.47 1566.48 1201.94 1569.24 1207.23L1669.96 1400.03C1671.92 1403.79 1675.77 1406.16 1680 1406.28C1764.25 1408.66 1868.33 1428.27 1940.92 1491.88C1944.35 1494.89 1949.16 1495.75 1953.4 1494.08C1983.68 1482.19 2034.09 1467.66 2087.33 1467.66C2134.28 1467.66 2184.92 1497.05 2223.09 1546.07C2261.66 1595.62 2288.92 1666.73 2288.92 1754.37V2286.27C2288.92 2287.35 2289.07 2288.43 2289.38 2289.47C2293.3 2302.57 2301.03 2322.43 2312.53 2342.47C2324.35 2363.07 2339.41 2382.55 2357.23 2395.51C2359.96 2397.49 2361.87 2400.44 2362.32 2403.78L2364.61 2420.79C2365.06 2424.14 2364.03 2427.51 2361.79 2430.03L2328.75 2467.2C2327.43 2468.68 2325.75 2469.8 2323.87 2470.45L2312.6 2474.33C2310.72 2474.97 2308.72 2475.13 2306.77 2474.76C2260.57 2465.8 2193.46 2441.49 2137.01 2396.31C2078.89 2349.8 2031.39 2280.46 2031.39 2183.35V1891.95C2031.39 1878.62 2003.44 1872.14 1995.33 1882.72C1973.62 1911.03 1946.05 1934.11 1917.28 1952.54C1868.19 1983.97 1813.84 2003.05 1773.7 2012.16C1770.18 2012.96 1767.21 2015.3 1765.66 2018.56L1716.51 2122C1714.41 2126.43 1715.32 2131.69 1718.78 2135.16L1825.69 2242.07C1826.77 2243.15 1827.62 2244.42 1828.2 2245.83L1831.81 2254.53C1832.39 2255.94 1832.69 2257.44 1832.69 2258.96V2312.23C1832.69 2313.75 1832.39 2315.26 1831.81 2316.66L1828.2 2325.37C1827.62 2326.77 1826.77 2328.05 1825.69 2329.12L1527.27 2627.55C1522.75 2632.07 1522.75 2639.39 1527.27 2643.91L1545.18 2661.82C1547.35 2663.99 1548.57 2666.94 1548.57 2670V2686.33C1548.57 2689.4 1547.35 2692.35 1545.18 2694.52L1507.75 2731.94C1506.68 2733.02 1505.4 2733.87 1504 2734.45L1495.29 2738.06C1493.89 2738.64 1492.38 2738.94 1490.87 2738.94H1294.44C1291.37 2738.94 1288.43 2737.72 1286.26 2735.55L1274.71 2724C1272.54 2721.83 1271.32 2718.89 1271.32 2715.82V2665.04C1271.32 2663.52 1271.62 2662.01 1272.2 2660.61L1275.81 2651.91C1276.39 2650.5 1277.24 2649.22 1278.32 2648.15L1614.36 2312.11C1618.88 2307.59 1618.88 2300.26 1614.36 2295.74L1462.77 2144.15C1458.25 2139.63 1450.92 2139.63 1446.4 2144.15L1431.78 2158.77C1427.26 2163.29 1427.26 2170.62 1431.78 2175.14L1452.41 2195.77C1453.49 2196.85 1454.34 2198.13 1454.92 2199.53L1458.53 2208.23C1459.11 2209.64 1459.41 2211.14 1459.41 2212.66V2301.62C1459.41 2303.14 1459.11 2304.65 1458.53 2306.05L1454.92 2314.76C1454.34 2316.16 1453.49 2317.44 1452.41 2318.51L1162.19 2608.74C1157.67 2613.26 1157.67 2620.59 1162.19 2625.11L1167.07 2629.99C1169.24 2632.16 1170.46 2635.1 1170.46 2638.17V2654.5C1170.46 2657.57 1169.24 2660.52 1167.07 2662.69L1129.65 2700.11C1128.57 2701.19 1127.3 2702.04 1125.89 2702.62L1117.19 2706.23C1115.79 2706.81 1114.28 2707.11 1112.76 2707.11H927.911C924.841 2707.11 921.897 2705.89 919.726 2703.72L908.18 2692.17C906.009 2690 904.79 2687.06 904.79 2683.99V2648.64C904.79 2647.12 905.089 2645.62 905.671 2644.21L909.276 2635.51C909.858 2634.1 910.71 2632.83 911.785 2631.75L1266.15 2277.38C1270.67 2272.86 1270.67 2265.54 1266.15 2261.01L1156.65 2151.51C1137.7 2135.32 1104.45 2090.79 1104.45 2028.06C1104.45 1966.56 1128.69 1919.42 1142.35 1901.98L1143.82 1900.32L1272.9 1771.24C1278.54 1765.6 1276.92 1756.07 1269.72 1752.62L1032.24 1638.56C1030.68 1637.81 1028.97 1637.42 1027.23 1637.42H939.181C936.883 1637.42 934.637 1636.73 932.729 1635.45L921.62 1627.99C919.712 1626.71 918.228 1624.89 917.359 1622.76L866.342 1498C864.563 1493.65 860.329 1490.81 855.629 1490.81H836.953C832.303 1490.81 828.104 1493.59 826.293 1497.87L747.472 1684.23C745.586 1688.69 746.675 1693.85 750.2 1697.17L759.209 1705.65C761.357 1707.67 764.194 1708.79 767.142 1708.79H840.121C844.317 1708.79 848.184 1711.06 850.228 1714.73L859.202 1730.81C861.246 1734.47 861.148 1738.95 858.946 1742.53L773.866 1880.44C771.983 1883.5 768.792 1885.5 765.225 1885.88L747.683 1887.72C744.116 1888.1 740.577 1886.8 738.1 1884.2L602.522 1742.17C601.029 1740.6 600.004 1738.65 599.563 1736.54L596.963 1724.05C596.523 1721.93 596.684 1719.74 597.428 1717.71L625.59 1640.9C630.249 1628.19 613.045 1619.18 605.257 1630.25L577.664 1669.46C575.644 1672.34 572.429 1674.13 568.926 1674.36L551.476 1675.45C547.972 1675.67 544.557 1674.29 542.192 1671.7L429.459 1547.97C428.042 1546.41 427.075 1544.5 426.664 1542.43L424.224 1530.2C423.812 1528.14 423.971 1526 424.683 1524.02L576.684 1101.27C577.49 1099.02 578.969 1097.08 580.918 1095.71L592.173 1087.8C594.122 1086.43 596.447 1085.69 598.83 1085.69H761.542C763.754 1085.69 765.92 1086.33 767.782 1087.52L778.719 1094.52C780.582 1095.71 782.064 1097.41 782.99 1099.42L821.021 1181.91C825.305 1191.2 838.565 1190.74 841.998 1181.11C847.841 1164.7 853.757 1146.84 859.247 1128.31C873.554 1080 884.534 1028.64 884.534 987.308C884.534 947.572 868.972 903.213 848.222 862.872C837.926 842.854 826.595 824.295 815.816 808.372C810.89 801.095 800.037 802.13 796.305 810.086L765.27 876.242C763.241 880.567 764.078 885.695 767.376 889.15L793.257 916.264C795.344 918.45 796.493 921.367 796.458 924.39L796.27 940.573C796.235 943.596 795.019 946.485 792.881 948.623L691.576 1049.93C689.405 1052.1 686.461 1053.32 683.391 1053.32H667.061C663.991 1053.32 661.047 1052.1 658.877 1049.93L572.262 963.314C571.188 962.239 570.335 960.963 569.753 959.558L566.148 950.853C565.566 949.449 565.267 947.944 565.267 946.424V454.402C565.267 451.598 566.285 448.889 568.131 446.779L578.299 435.161C580.145 433.051 582.694 431.678 585.477 431.33C588.329 430.974 591.273 430.631 594.303 430.302C600.251 429.657 604.814 424.673 604.814 418.689V351.874C604.814 349.243 605.71 346.691 607.355 344.638L616.598 333.098C618.243 331.045 620.511 329.614 623.084 329.066C650.499 323.236 711.051 313.086 764.93 313.086C800.522 313.086 884.558 318.057 978.424 349.098C1072.35 380.161 1177.22 437.713 1252.5 543.605C1299.55 609.786 1336.08 668.261 1363.68 717.063C1369.59 727.517 1385.9 723.489 1385.97 711.479C1386.17 676.807 1386.13 639.394 1385.98 599.025C1385.3 412.584 1535.85 261 1722.35 261H2530.18ZM1722.35 299.582C1557.28 299.582 1423.96 433.738 1424.57 598.882C1424.97 710.351 1424.55 800.423 1420.58 872.636C1416.63 944.609 1409.09 1000.41 1394.57 1042.68C1379.82 1085.63 1357.44 1115.82 1323.58 1134.51C1303.57 1145.55 1280.43 1152.06 1254.14 1155.48C1247.39 1156.35 1241.54 1150.99 1241.54 1144.19V1128.55C1241.54 1122.61 1246.04 1117.67 1251.91 1116.84C1273.41 1113.82 1290.74 1108.56 1304.93 1100.73C1328.37 1087.8 1345.58 1066.54 1358.08 1030.15C1360.73 1022.41 1363.15 1014.05 1365.36 1005C1366.46 1000.47 1364.63 995.743 1360.79 993.087C1337.35 976.87 1308.27 958.564 1286.2 949.536C1270.32 944.3 1239.82 942.723 1205.27 943.679C1171.41 944.617 1136.8 947.84 1115.41 950.514L1108.71 951.351C1102.36 952.144 1096.58 947.644 1095.79 941.301L1094.11 927.902C1093.32 921.559 1097.82 915.775 1104.16 914.981L1110.86 914.144C1133.19 911.352 1169 908.015 1204.26 907.04C1220.26 906.597 1236.88 906.608 1252.37 907.536C1260.41 908.017 1266.88 900.655 1264.73 892.891C1240.41 805.447 1177.91 662.981 1058.37 568.608C996.598 519.839 916.781 491.718 837.329 476.868C758.026 462.045 680.428 460.692 624.37 464.466C620.229 464.745 616.213 465.052 612.327 465.384C606.411 465.888 601.92 470.873 601.92 476.811V936.34C601.92 939.41 603.14 942.354 605.31 944.524L667.042 1006.26C671.562 1010.78 678.89 1010.78 683.411 1006.26L749.639 940.026C754.085 935.58 754.168 928.398 749.827 923.849L704.57 876.438C700.156 871.814 700.327 864.487 704.951 860.074L718.125 847.498C720.868 844.88 725.215 844.981 727.833 847.724C731.166 851.216 736.966 850.27 739.016 845.9L781.348 755.67C783.018 752.111 786.38 749.643 790.277 749.116L808.298 746.681C812.194 746.155 816.094 747.626 818.592 750.662C836.269 772.141 860.427 806.465 880.817 846.107C902.668 888.589 921.187 939.078 921.187 987.308C921.187 1033.95 909.018 1089.33 894.389 1138.72C884.333 1172.66 872.901 1204.47 862.878 1229.69C859.822 1237.38 865.437 1245.81 873.711 1245.81H932.161C934.44 1245.81 936.668 1246.48 938.566 1247.74L949.64 1255.1C951.538 1256.36 953.021 1258.15 953.905 1260.25L1062.23 1517.9C1064.71 1523.79 1061.94 1530.58 1056.05 1533.05L1043.6 1538.29C1037.71 1540.77 1030.92 1538 1028.44 1532.1L926.46 1289.55C924.654 1285.26 920.449 1282.46 915.79 1282.46H804.139C799.283 1282.46 794.944 1285.49 793.272 1290.05L637.107 1715.95C635.588 1720.09 636.556 1724.74 639.601 1727.93L741.797 1834.99C747.033 1840.48 756.04 1839.53 760.021 1833.08L803.191 1763.1C807.948 1755.39 802.401 1745.45 793.34 1745.45H757.495C756.034 1745.45 754.587 1745.17 753.228 1744.63L744.78 1741.28C743.422 1740.74 742.178 1739.95 741.114 1738.95L712.573 1712.09C710.852 1710.47 709.668 1708.36 709.18 1706.05L706.359 1692.67C705.871 1690.36 706.103 1687.95 707.024 1685.77L827.029 1402.04C828.85 1397.73 833.083 1394.95 837.758 1394.97L856.157 1395.08C860.833 1395.11 865.032 1397.95 866.802 1402.28L945.019 1593.57C946.799 1597.92 951.032 1600.76 955.733 1600.76H1142.51C1147.35 1600.76 1151.67 1597.76 1153.36 1593.22L1222.74 1406.71C1224.97 1400.72 1231.63 1397.67 1237.62 1399.9L1250.28 1404.61C1256.27 1406.83 1259.32 1413.5 1257.09 1419.49L1181.73 1622.08C1180.91 1624.29 1179.43 1626.2 1177.49 1627.55L1165.96 1635.56C1164.22 1636.77 1162.16 1637.42 1160.04 1637.42C1149.02 1637.42 1145.62 1652.35 1155.56 1657.12L1414.96 1781.71C1419.45 1783.87 1424.81 1782.91 1428.28 1779.33L1515.57 1689.26C1520.02 1684.67 1527.35 1684.56 1531.94 1689L1541.64 1698.4C1546.23 1702.85 1546.34 1710.18 1541.89 1714.77L1389.94 1871.56C1388.85 1872.68 1388.01 1873.99 1387.46 1875.45C1380.39 1894.4 1369.7 1930.2 1369.7 1957.65C1369.7 1969.87 1375.55 1985.97 1384.77 2002.62C1393.56 2018.49 1404.13 2032.59 1411.1 2040.65L1658.03 2287.57C1660.2 2289.74 1661.42 2292.69 1661.42 2295.76V2312.09C1661.42 2315.16 1660.2 2318.1 1658.03 2320.27L1311.36 2666.94C1309.19 2669.11 1307.97 2672.05 1307.97 2675.12V2690.71C1307.97 2697.1 1313.16 2702.28 1319.55 2702.28H1480.78C1483.85 2702.28 1486.79 2701.06 1488.97 2698.89L1501.5 2686.35C1506.02 2681.83 1506.02 2674.51 1501.5 2669.99L1460 2628.48C1455.48 2623.96 1455.48 2616.63 1460 2612.11L1470.02 2602.1C1474.28 2597.83 1481.19 2597.83 1485.45 2602.1C1489.71 2606.36 1496.62 2606.36 1500.88 2602.1L1792.65 2310.33C1794.82 2308.16 1796.04 2305.22 1796.04 2302.15V2269.05C1796.04 2265.98 1794.82 2263.03 1792.65 2260.86L1680.54 2148.75C1678.85 2147.06 1677.72 2144.89 1677.32 2142.54L1674.97 2128.95C1674.57 2126.6 1674.9 2124.17 1675.92 2122.02L1737.77 1991.85C1738.56 1990.2 1739.73 1988.75 1741.19 1987.63L1750.03 1980.86C1751.49 1979.75 1753.18 1979 1754.98 1978.65C1792.04 1971.54 1847.99 1953.39 1897.51 1921.67C1948.31 1889.13 1990.09 1843.88 2000.81 1783.71C2018.39 1685.01 2001.91 1640.52 1989.24 1624.56C1988.76 1623.96 1988.22 1623.44 1987.62 1622.97C1986.88 1622.39 1986.13 1621.83 1985.37 1621.27C1980.64 1617.79 1978.56 1611.55 1980.92 1606.17L1987.29 1591.71C1989.66 1586.34 1995.77 1583.49 2000.83 1586.47C2005.46 1589.19 2009.87 1592.79 2013.92 1597.12C2054.79 1631.36 2067.04 1681.84 2068.03 1706.12L2068.04 1706.87V2183.35C2068.04 2266.81 2108.31 2326.4 2159.91 2367.7C2205.42 2404.11 2259.19 2425.74 2299.73 2435.68C2303.81 2436.68 2308.07 2435.28 2310.86 2432.15L2317.09 2425.14C2321.35 2420.35 2320.87 2413.02 2316.35 2408.46C2301.86 2393.86 2290.05 2376.93 2280.75 2360.72C2266.43 2335.77 2257.16 2310.96 2252.9 2295.19L2252.27 2290.42V1754.37C2252.27 1674.41 2227.44 1611.33 2194.16 1568.59C2160.47 1525.31 2119.48 1504.31 2087.33 1504.31C2030.68 1504.31 1976.73 1523.06 1954.23 1533.54C1952 1534.57 1949.54 1534.95 1947.11 1534.53L1933.23 1532.17C1930.8 1531.76 1928.58 1530.58 1926.84 1528.85C1859.67 1462.07 1750.85 1442.69 1661.96 1442.68C1625.56 1442.67 1593.53 1445.92 1570.67 1450.01L1564.02 1451.2C1557.73 1452.32 1551.71 1448.14 1550.59 1441.84L1548.21 1428.55C1547.08 1422.26 1551.27 1416.24 1557.56 1415.12L1564.21 1413.93C1578.27 1411.41 1595.16 1409.24 1614.05 1407.81C1622.47 1407.17 1627.67 1398.14 1623.77 1390.64L1536.3 1222.52C1533.64 1217.42 1527.65 1215.07 1522.13 1216.71C1496.56 1224.32 1465.71 1228.6 1429.03 1231.17C1382.67 1234.43 1324.82 1235.05 1253.13 1235.17C1246.74 1235.18 1241.54 1229.99 1241.54 1223.6V1208.16C1241.54 1201.77 1246.72 1196.59 1253.11 1196.58C1324.71 1196.46 1381.29 1195.85 1426.33 1192.69C1482.61 1188.74 1517.59 1180.94 1540.2 1167.51C1561.16 1155.07 1573.4 1136.56 1580.56 1104.37C1587.98 1070.98 1589.37 1025.42 1589.57 961.386C1589.66 935.402 1611.31 915.201 1636.28 914.986C2054.49 911.381 2277.51 824.939 2396.84 709.25C2515.7 594.014 2535.75 445.864 2537.72 307.023C2537.77 303.059 2534.52 299.582 2530.18 299.582H1722.35ZM1171.19 1924.78C1170.8 1925.17 1170.45 1925.57 1170.13 1926.01C1160.63 1939.09 1141.11 1977.37 1141.11 2028.06C1141.11 2077.18 1167.05 2111.68 1179.63 2122.93L1180.81 2123.94L1182.04 2125.06L1309.83 2252.85C1312 2255.02 1313.22 2257.96 1313.22 2261.03V2277.36C1313.22 2280.43 1312 2283.38 1309.83 2285.55L944.833 2650.54C942.662 2652.71 941.443 2655.7 941.443 2658.77C941.443 2665.16 946.625 2670.45 953.017 2670.45H1102.68C1105.75 2670.45 1108.69 2669.23 1110.86 2667.06L1123.4 2654.52C1127.92 2650 1127.92 2642.68 1123.4 2638.16L1080.93 2595.69C1076.41 2591.17 1076.41 2583.84 1080.93 2579.32L1090.48 2569.77C1095 2565.25 1102.33 2565.25 1106.85 2569.77L1119.9 2582.82C1124.42 2587.34 1131.75 2587.34 1136.27 2582.82L1419.36 2299.72C1421.54 2297.55 1422.75 2294.61 1422.75 2291.54V2222.75C1422.75 2219.68 1421.54 2216.73 1419.36 2214.56L1388.11 2183.31C1385.94 2181.14 1384.72 2178.19 1384.72 2175.12V2158.79C1384.72 2155.72 1385.94 2152.78 1388.11 2150.61L1420.48 2118.23C1425 2113.71 1425 2106.38 1420.48 2101.86L1384.72 2066.1L1383.87 2065.19C1375.4 2055.49 1363.05 2039.05 1352.71 2020.37C1342.64 2002.18 1333.05 1979.38 1333.05 1957.65C1333.05 1920.78 1347.73 1875.9 1355.22 1857.22C1355.49 1856.53 1355.83 1855.9 1356.23 1855.28L1358.83 1851.3C1359.23 1850.68 1359.7 1850.1 1360.21 1849.57L1384.41 1824.6C1389.9 1818.93 1388.23 1809.54 1381.1 1806.12L1326.86 1780.06C1322.43 1777.93 1317.14 1778.83 1313.66 1782.31L1171.19 1924.78ZM464.177 1522.5C462.726 1526.54 463.625 1531.04 466.513 1534.21L547.921 1623.56C552.909 1629.04 561.682 1628.48 565.943 1622.43L602.973 1569.81C608.37 1562.14 602.885 1551.57 593.507 1551.57H565.562C561.754 1551.57 558.19 1549.7 556.03 1546.56L545.807 1531.72C543.647 1528.59 543.168 1524.59 544.525 1521.03L646.659 1253.27C648.331 1248.89 652.483 1245.95 657.173 1245.83L675.554 1245.35C680.244 1245.23 684.543 1247.95 686.441 1252.24L719.5 1326.97C723.711 1336.49 737.368 1336.05 740.952 1326.27L764.797 1261.25C765.613 1259.02 767.093 1257.1 769.036 1255.74L780.27 1247.89C782.214 1246.54 784.527 1245.81 786.898 1245.81H792.038C800.483 1245.81 806.085 1237.06 802.55 1229.39L756.301 1129.07C754.41 1124.97 750.306 1122.35 745.789 1122.35H616.192C611.31 1122.35 606.952 1125.41 605.3 1130L464.177 1522.5ZM592.073 1499.22C589.182 1506.8 594.778 1514.92 602.887 1514.92H645.559C648.971 1514.92 652.099 1516.82 653.671 1519.85C657.332 1526.9 667.629 1526.24 670.365 1518.78L711.317 1407.1C712.349 1404.28 712.248 1401.17 711.035 1398.43L679.175 1326.41C674.993 1316.96 661.459 1317.31 657.775 1326.97L592.073 1499.22ZM764.93 349.739C725.065 349.739 680.558 355.778 650.874 361.027C645.403 361.994 641.467 366.773 641.467 372.328V414.748C641.467 421.334 646.947 426.586 653.531 426.397C707.917 424.837 775.26 427.978 844.064 440.838C926.781 456.299 1012.96 486.055 1081.08 539.839C1223.44 652.227 1288.96 826.434 1307.61 913.728C1308.38 917.339 1310.77 920.327 1314.08 921.959C1328.47 929.044 1343.97 938.199 1358.64 947.6C1365.85 952.22 1375.5 947.908 1376.47 939.401C1378.83 918.791 1380.66 895.912 1382.06 870.518C1382.6 860.704 1383.07 850.544 1383.48 840.026C1383.55 838.298 1383.24 836.61 1382.55 835.026C1359.14 781.447 1309.59 687.175 1222.62 564.842C1153.22 467.213 1056.01 413.361 966.917 383.898C877.759 354.413 797.82 349.739 764.93 349.739Z" fill="black" style="fill:black;fill-opacity:1;"/>
</svg>
